<?xml version="1.0" encoding="utf-8"?>
<!-- Generator: Adobe Illustrator 26.0.0, SVG Export Plug-In . SVG Version: 6.00 Build 0)  -->
<svg version="1.1" id="Capa_1" xmlns="http://www.w3.org/2000/svg" xmlns:xlink="http://www.w3.org/1999/xlink" x="0px" y="0px"
	 viewBox="0 0 800.3 841.9" style="enable-background:new 0 0 800.3 841.9;" xml:space="preserve">
<style type="text/css">
	.st0{fill:#1F7BBE;stroke:#000000;stroke-miterlimit:10;}
	.st1{fill:#1F7BBE;}
	.st2{fill:#84BFEA;}
</style>
<g>
	<rect x="-120" y="133.4" class="st0" width="1090" height="575"/>
	<path class="st0" d="M447.2,216.7"/>
	<path class="st1" d="M516.6,375.8"/>
	<path class="st2" d="M10.3,347.7c0,0,13.9-52.1,73.4-69.8c0,0,94.2-17.9,183.8-11.7c0,0,235.9,21.1,323.6,43.5
		c0,0,78.9,19.7,82.6,20.8c3.7,1.1,119.6,35.5,157.4,65.9c0,0,57.9,38.8,24.8,83.3c0,0-38.7,81-252.6,121.6
		c0,0-82.2,18.9-195.6,12.3c0,0-96.8-4.1-201.3-34.3C206.3,579.2-26.3,539,10.3,347.7z"/>
</g>
</svg>
